<svg style="position: absolute; width: 0; height: 0; overflow: hidden;" version="1.1" xmlns="http://www.w3.org/2000/svg" xmlns:xlink="http://www.w3.org/1999/xlink">
<defs>
<symbol id="icon-arrow" viewBox="0 0 32 32">
<title>arrow</title>
<path d="M2.182 0l28.727 9.636c0.909 0.364 1.273 1.091 1.091 2-0.182 0.364-0.364 0.727-0.727 0.909v0l-8.364 4.364 8 8c0.545 0.545 0.545 1.636 0 2.182l-3.455 3.455c-0.545 0.545-1.636 0.545-2.182 0h-0.182l-8-8-4.364 8.364c-0.364 0.727-1.455 1.091-2.182 0.727-0.364-0.182-0.727-0.545-0.727-0.909l-9.455-28.545c-0.364-0.909 0.182-1.818 1.091-2 0-0.182 0.364-0.182 0.727-0.182v0zM26.182 11.455v0l-22-7.273 7.273 22 3.636-6.909c0.182-0.182 0.182-0.364 0.364-0.364 0.545-0.545 1.636-0.727 2.182 0l8.545 8.545 1.091-1.091-8.364-8.364c-0.182-0.182-0.182-0.364-0.364-0.364-0.364-0.727-0.182-1.818 0.727-2.182l6.909-4z"></path>
</symbol>
<symbol id="icon-bag" viewBox="0 0 32 32">
<title>bag</title>
<path d="M27.826 7.93h-4.87v-1.252c0-1.809-0.696-3.478-1.948-4.591v0c-1.252-1.252-2.922-1.948-4.73-1.948s-3.478 0.696-4.73 1.948c-1.252 1.252-1.948 2.922-1.948 4.73v1.252h-4.87c-0.696 0-1.252 0.557-1.252 1.252v21.426c0 0.696 0.557 1.252 1.252 1.252h22.957c0.696 0 1.252-0.557 1.252-1.252v-21.426c0.139-0.696-0.417-1.391-1.113-1.391v0zM21.565 14.47v0c0.139-0.139 0.417-0.278 0.557-0.278v0 0c0.278 0 0.417 0.139 0.696 0.278v0 0c0.139 0.139 0.278 0.417 0.278 0.696s-0.139 0.417-0.278 0.696v0c-0.139 0.139-0.417 0.278-0.696 0.278s-0.417-0.139-0.696-0.278v0c-0.139-0.139-0.278-0.417-0.278-0.557 0.139-0.417 0.278-0.696 0.417-0.835v0 0zM11.13 6.678v0c0-1.391 0.557-2.783 1.53-3.617 0.974-0.974 2.226-1.53 3.617-1.53s2.783 0.557 3.617 1.53v0c0.974 0.974 1.53 2.226 1.53 3.617v1.252h-10.296v-1.252zM9.739 14.47v0 0c0.139-0.139 0.417-0.278 0.557-0.278v0 0c0.278 0 0.417 0.139 0.557 0.278v0c0.139 0.139 0.278 0.417 0.278 0.696s-0.139 0.417-0.278 0.696v0c-0.139 0.139-0.417 0.278-0.696 0.278s-0.557-0.139-0.696-0.278v0c-0.139-0.139-0.278-0.417-0.278-0.557 0.278-0.417 0.417-0.696 0.557-0.835v0zM26.574 29.496v0h-20.591v-18.922h3.617v2.365c-0.417 0.139-0.696 0.278-0.974 0.557v0c-0.417 0.417-0.696 0.974-0.696 1.67s0.278 1.252 0.696 1.67v0c0.417 0.417 0.974 0.696 1.67 0.696s1.252-0.278 1.67-0.696v0c0.417-0.417 0.696-0.974 0.696-1.67s-0.278-1.252-0.696-1.67v0c-0.278-0.278-0.557-0.417-0.974-0.557v-2.365h10.296v2.365c-0.278 0.139-0.696 0.278-0.974 0.557v0c-0.417 0.417-0.696 0.974-0.696 1.67s0.278 1.252 0.696 1.67v0c0.417 0.417 1.113 0.696 1.67 0.696 0.696 0 1.252-0.278 1.67-0.696v0c0.417-0.417 0.696-0.974 0.696-1.67s-0.278-1.252-0.696-1.67c-0.278-0.278-0.557-0.417-0.974-0.557v-2.365h3.617v18.922h0.278z"></path>
</symbol>
<symbol id="icon-circle" viewBox="0 0 32 32">
<title>circle</title>
<path d="M2.789 24.44c-0.22 0-0.514-0.147-0.661-0.367-1.395-2.422-2.202-5.211-2.202-8.073 0.073-8.807 7.266-16 16.073-16 2.569 0 5.138 0.661 7.413 1.835 0.367 0.22 0.514 0.661 0.294 0.954-0.22 0.367-0.661 0.514-0.954 0.294-2.055-1.028-4.404-1.615-6.752-1.615-8 0-14.532 6.532-14.532 14.532 0 2.569 0.661 5.138 1.982 7.339 0.22 0.367 0.073 0.807-0.294 1.028-0.073 0.073-0.22 0.073-0.367 0.073z"></path>
<path d="M16 32c-3.229 0-6.312-0.954-8.954-2.716-0.294-0.22-0.44-0.661-0.147-1.028 0.22-0.367 0.661-0.44 1.028-0.22 2.422 1.615 5.211 2.495 8.147 2.495 8 0 14.532-6.532 14.532-14.532 0-3.45-1.174-6.752-3.376-9.321-0.294-0.294-0.22-0.807 0.073-1.028 0.294-0.294 0.807-0.22 1.028 0.073 2.422 2.862 3.743 6.532 3.743 10.275-0.073 8.881-7.193 16-16.073 16z"></path>
</symbol>
<symbol id="icon-group" viewBox="0 0 32 32">
<title>group</title>
<path d="M16.128 2.56c3.584 0 6.528 2.56 7.168 6.144 0.512-0.128 1.152-0.256 1.664-0.256 1.536 0 2.944 0.64 4.096 1.664 1.024 1.024 1.664 2.432 1.664 4.096 0 1.536-0.64 2.816-1.536 3.84l1.408 1.408c0.64 0.64 1.024 1.28 1.408 2.048s0.512 1.536 0.512 2.432v1.664c0 0.384-0.128 0.896-0.384 1.28s-0.64 0.64-1.28 0.768c0 0-0.128 0-0.128 0h-1.28v0.512c0 0.512-0.512 1.024-1.024 1.024h-24.064c-0.64 0-1.024-0.384-1.024-1.024v-0.64h-1.28c0 0-0.128 0-0.128 0-0.512 0-0.896-0.384-1.28-0.768-0.256-0.384-0.384-0.896-0.384-1.28v-1.664c0-0.896 0.128-1.664 0.512-2.432v0c0.512-1.408 1.664-2.304 2.688-3.328-0.896-1.024-1.536-2.432-1.536-3.84 0-1.536 0.64-3.072 1.664-4.096s2.432-1.664 4.096-1.664c0.64 0 1.152 0.128 1.664 0.256 0.256-3.584 3.2-6.144 6.784-6.144v0zM16.128 26.88v0h3.2c0-1.536 0-3.2 0-4.736 0-0.384 0.256-0.64 0.64-0.64s0.64 0.256 0.64 0.64v2.816h2.688c0-0.128 0-0.128 0-0.256v-2.304c0-2.944-2.048-4.352-3.968-6.4-1.024 0.512-2.176 0.768-3.328 0.768s-2.304-0.256-3.328-0.768c-1.92 1.92-3.968 3.328-3.968 6.4v2.176c0 0.128 0 0.128 0 0.256h2.688v-2.816c0-0.384 0.256-0.64 0.64-0.64s0.64 0.256 0.64 0.64c0 1.536 0 3.2 0 4.736h3.456v0.128zM16.128 14.848v0c2.816 0 5.12-2.176 5.12-5.12 0-2.816-2.304-5.12-5.12-5.12s-5.12 2.304-5.12 5.12c0 2.816 2.304 5.12 5.12 5.12v0zM5.12 26.88v0h3.072c-0.384-0.128-0.768-0.384-0.896-0.768-0.256-0.384-0.512-1.024-0.512-1.536v-2.176c0-0.896 0.128-1.792 0.512-2.688-0.896 0-1.664-0.256-2.304-0.512-0.896 0.896-2.048 1.792-2.56 2.944v0 0c-0.256 0.512-0.256 1.024-0.256 1.664v1.664h1.792v-1.792c0-0.384 0.256-0.64 0.64-0.64s0.64 0.256 0.64 0.64v3.2h-0.128zM9.088 10.88v0c-0.256-0.128-0.384-0.256-0.64-0.256-0.384-0.128-0.64-0.128-1.152-0.128-1.024 0-1.92 0.384-2.56 1.024s-1.024 1.536-1.024 2.56c0 1.024 0.384 1.92 1.024 2.56s1.536 1.024 2.56 1.024c0.384 0 0.768 0 1.152-0.128 0.768-0.896 1.792-1.792 2.56-2.688-1.024-1.024-1.664-2.432-1.92-3.968v0zM27.136 26.88v0-3.328c0-0.384 0.256-0.64 0.64-0.64s0.64 0.256 0.64 0.64v1.792h1.792v-1.664c0-0.64-0.128-1.152-0.256-1.664-0.256-0.512-0.512-0.896-0.896-1.28l-1.536-1.536c-0.768 0.384-1.536 0.512-2.304 0.512 0.256 0.896 0.512 1.664 0.512 2.688v2.176c0 0.512-0.128 1.024-0.512 1.536-0.256 0.384-0.512 0.64-0.896 0.768h2.816zM23.296 10.88v0c-0.256 1.664-0.896 2.816-2.048 3.968 0.896 0.896 1.792 1.664 2.56 2.688 0.128 0 0.384 0.128 0.384 0.128 0.256 0 0.512 0 0.768 0 1.024 0 1.92-0.384 2.56-1.024s1.024-1.536 1.024-2.56c0-1.024-0.384-1.92-1.024-2.56s-1.536-1.024-2.56-1.024c-0.384 0-0.768 0-1.152 0.128-0.128 0-0.384 0.128-0.512 0.256v0z"></path>
</symbol>
<symbol id="icon-mail" viewBox="0 0 32 32">
<title>mail</title>
<path d="M30.906 5.355c-0.083-0.017-0.149-0.050-0.232-0.050h-29.347c-0.066 0-0.149 0.033-0.232 0.050l14.906 12.419 14.906-12.419zM0.083 6.234c-0.050 0.133-0.083 0.265-0.083 0.398v18.669c0 0.116 0.033 0.216 0.066 0.332l10.578-10.578-10.562-8.821zM31.917 6.234l-10.562 8.804 10.578 10.578c0.033-0.099 0.066-0.216 0.066-0.332v-18.653c0-0.133-0.033-0.265-0.083-0.398zM16.431 19.15c-0.116 0.099-0.265 0.149-0.431 0.149-0.149 0-0.298-0.050-0.431-0.149l-3.896-3.25-10.661 10.678c0.099 0.033 0.216 0.066 0.315 0.066h29.347c0.116 0 0.216-0.033 0.332-0.066l-10.678-10.678-3.896 3.25z"></path>
</symbol>
<symbol id="icon-menu1" viewBox="0 0 32 32">
<title>menu1</title>
<path d="M0 30.567h7.124v-19.967h-7.124v19.967zM1.969 12.177h3.171v3.171h-3.171v-3.171zM1.969 17.824h3.171v3.171h-3.171v-3.171zM1.969 23.24h3.171v3.186h-3.171v-3.186zM8.804 30.567h11.888v-29.191h-11.888v29.191zM18.939 26.469h-3.171v-3.171h3.171v3.171zM13.017 21.719v-3.171h3.171v3.171h-3.171zM18.939 16.956h-3.171v-3.171h3.171v3.171zM13.017 12.192v-3.171h3.171v3.171h-3.171zM15.754 4.271h3.171v3.171h-3.171v-3.171zM10.281 4.271h3.186v3.171h-3.186v-3.171zM10.281 13.785h3.186v3.171h-3.186v-3.171zM10.281 23.298h3.186v3.171h-3.186v-3.171zM30.567 13.423v-3.794h-1.723v-3.707h-1.245v-3.446h-1.043v3.446h-1.245v3.707h-1.723v3.794h-1.405v17.144h9.803v-17.144h-1.419zM26.976 28.395h-3.171v-3.171h3.171v3.171zM26.976 18.65h-3.171v-3.171h3.171v3.171zM30.697 23.471h-3.171v-3.171h3.171v3.171z"></path>
</symbol>
<symbol id="icon-menu2" viewBox="0 0 32 32">
<title>menu2</title>
<path d="M30.777 13.547h-1.478c-0.672 0-1.398-0.524-1.599-1.183l-0.847-2.056c-0.323-0.591-0.188-1.478 0.282-1.962l1.048-1.048c0.484-0.484 0.484-1.263 0-1.747l-1.747-1.747c-0.484-0.484-1.263-0.484-1.747 0l-1.048 1.048c-0.484 0.484-1.357 0.605-1.962 0.296l-2.043-0.847c-0.645-0.202-1.183-0.914-1.183-1.599v-1.478c0-0.672-0.551-1.236-1.236-1.236h-2.459c-0.672 0-1.236 0.551-1.236 1.236v1.478c0 0.672-0.524 1.398-1.169 1.599l-2.056 0.847c-0.591 0.323-1.478 0.188-1.949-0.296l-1.048-1.048c-0.484-0.484-1.263-0.484-1.734 0l-1.747 1.747c-0.484 0.484-0.484 1.263 0 1.747l1.048 1.048c0.484 0.484 0.605 1.357 0.296 1.962l-0.86 2.056c-0.202 0.645-0.914 1.169-1.599 1.169h-1.478c-0.672 0-1.236 0.551-1.236 1.236v2.459c0 0.672 0.551 1.236 1.236 1.236h1.478c0.685 0 1.398 0.524 1.599 1.183l0.847 2.056c0.323 0.605 0.188 1.478-0.296 1.962l-1.048 1.048c-0.47 0.484-0.47 1.263 0 1.747l1.747 1.747c0.484 0.484 1.263 0.484 1.734 0l1.048-1.048c0.47-0.484 1.357-0.605 1.949-0.282l2.070 0.847c0.645 0.202 1.169 0.914 1.169 1.599v1.478c0 0.672 0.551 1.236 1.236 1.236h2.459c0.672 0 1.236-0.551 1.236-1.236v-1.478c0-0.672 0.538-1.398 1.183-1.599l2.056-0.847c0.591-0.323 1.478-0.188 1.962 0.282l1.048 1.048c0.484 0.484 1.263 0.484 1.747 0l1.747-1.747c0.484-0.484 0.484-1.263 0-1.747l-1.048-1.048c-0.47-0.47-0.605-1.357-0.282-1.962l0.847-2.056c0.202-0.645 0.927-1.169 1.599-1.169h1.478c0.672 0 1.223-0.551 1.223-1.236v-2.459c-0.013-0.685-0.564-1.236-1.236-1.236zM22.162 16.007c0 3.4-2.755 6.155-6.155 6.155s-6.155-2.755-6.155-6.155c0-3.4 2.755-6.155 6.155-6.155s6.155 2.755 6.155 6.155z"></path>
</symbol>
<symbol id="icon-music" viewBox="0 0 32 32">
<title>music</title>
<path d="M14.748 7.652l12.104-2.922v-1.948l-12.104 2.783v2.087zM8.765 21.426v0c1.391 0 2.504 0.417 3.617 0.974v-17.948c0-0.139 0-0.139 0.139-0.139v0 0 0 0 0 0 0 0 0 0 0 0 0 0 0 0 0 0 0 0 0 0 0 0 0 0 0 0 0 0 0c0 0 0.139 0 0.139 0v0c0 0 0.139 0 0.139 0l14.47-3.478c0.557-0.139 1.252 0.278 1.391 0.835v0c0 0.139 0 0.278 0 0.417v21.704c0 1.391-0.696 2.643-1.809 3.617-1.113 0.835-2.504 1.391-4.174 1.391-1.53 0-3.061-0.557-4.174-1.391v0c-1.113-0.974-1.809-2.226-1.809-3.617s0.696-2.643 1.809-3.617c1.113-0.835 2.504-1.391 4.174-1.391 1.391 0 2.504 0.417 3.617 0.974v-12.8l-12.104 2.783v17.252c0 1.391-0.696 2.643-1.809 3.478s-2.504 1.391-4.174 1.391c-1.53 0-3.061-0.557-4.174-1.391s-1.809-2.226-1.809-3.617c0-1.391 0.696-2.643 1.809-3.617 1.67-1.252 3.2-1.809 4.73-1.809v0zM11.409 24.765v0c-0.696-0.557-1.53-0.835-2.643-0.835s-1.948 0.278-2.643 0.835c-0.557 0.417-0.974 0.974-0.974 1.67s0.417 1.252 0.974 1.67c0.696 0.557 1.53 0.835 2.643 0.835 0.974 0 1.948-0.278 2.643-0.835 0.557-0.417 0.974-0.974 0.974-1.67s-0.417-1.252-0.974-1.67v0zM26.017 21.426v0c-0.696-0.557-1.53-0.835-2.643-0.835s-1.948 0.278-2.643 0.835c-0.557 0.417-0.974 0.974-0.974 1.67s0.417 1.252 0.974 1.67c0.696 0.557 1.53 0.835 2.643 0.835s1.948-0.278 2.643-0.835c0.557-0.417 0.974-0.974 0.974-1.67v0 0 0c-0.139-0.696-0.417-1.252-0.974-1.67v0 0z"></path>
</symbol>
<symbol id="icon-people" viewBox="0 0 32 32">
<title>people</title>
<path d="M4.352 30.464c0 0.64-0.512 1.152-1.28 1.152-0.64 0-1.152-0.512-1.152-1.152 0-2.176 0.896-3.84 2.176-5.12 1.792-1.664 4.224-2.432 5.632-2.56 0.256 0 0.512-0.128 0.768-0.256 0.128-0.128 0.128-0.256 0.256-0.384-1.152-0.896-1.664-2.176-2.048-3.328-0.256-0.512-0.384-1.024-0.512-1.152v0 0 0 0c-0.512-0.512-1.28-1.408-1.536-2.304-0.384-1.024-0.512-2.048 0.128-3.072-0.256-0.896-0.512-1.92-0.512-2.944 0-1.28 0.128-2.688 0.64-3.84v-0.128c0.64-1.664 1.536-2.944 2.816-3.84 1.408-0.896 3.072-1.408 4.992-1.408 0.768 0 1.664 0 2.56 0.128 1.024 0.128 2.048 0.64 2.688 1.536 1.28-0.128 2.432 0.64 3.2 1.664 1.024 1.28 1.792 3.072 2.048 4.096 0.128 0.768 0.128 1.664 0 2.56-0.128 0.64-0.256 1.408-0.512 2.176 0.64 1.024 0.512 2.176 0.128 3.2s-1.024 1.92-1.664 2.304v0 0 0c-0.128 0.128-0.256 0.64-0.512 1.152-0.384 1.024-0.896 2.304-2.048 3.328 0 0.128 0.128 0.256 0.256 0.384s0.384 0.256 0.768 0.256c1.408 0.128 3.84 0.896 5.632 2.56 1.28 1.152 2.176 2.816 2.176 5.12 0 0.64-0.512 1.152-1.152 1.152s-1.152-0.512-1.152-1.152c0-1.408-0.64-2.56-1.408-3.328-1.28-1.28-3.072-1.792-4.096-1.92-0.896-0.128-1.664-0.384-2.304-1.024s-1.536-3.072-0.384-3.84c0.896-0.512 1.28-1.664 1.664-2.56 0.384-0.768 0.64-1.536 1.152-2.048v0 0c0.256-0.256 0.768-0.768 1.024-1.408 0.128-0.512 0.256-0.896-0.128-1.152v0c-0.256-0.384-0.384-1.024-0.256-1.408 0.256-0.768 0.384-1.536 0.512-2.176s0.128-1.28 0-1.792c-0.128-0.768-0.64-1.92-1.408-2.944-0.384-0.512-0.896-0.896-1.28-0.768-0.384 0-0.896 0-1.152-0.128-0.384-0.128-0.64-0.384-0.896-0.768l-0.128-0.128c-0.128-0.256-0.64-0.512-1.152-0.512-0.768-0.128-1.536-0.128-2.176-0.128-1.408 0-2.688 0.256-3.712 1.024-0.896 0.512-1.536 1.408-1.92 2.56v0.128c-0.256 0.896-0.512 2.048-0.512 3.072v0c0 0.896 0.128 1.792 0.512 2.56 0.128 0.256 0.128 0.512 0.128 0.768-0.128 0.768-0.768 0.768-0.384 1.92 0.256 0.512 0.64 1.152 0.896 1.408v0 0c0.512 0.512 0.768 1.152 1.152 2.048s0.768 2.048 1.664 2.56c0.384 0.128 0.64 0.64 0.64 1.024 0 1.024-0.128 1.92-0.896 2.688-0.512 0.64-1.408 0.896-2.304 1.024-1.024 0.128-2.816 0.64-4.096 1.92-0.896 0.64-1.536 1.664-1.536 3.2v0z"></path>
</symbol>
<symbol id="icon-pig" viewBox="0 0 32 32">
<title>pig</title>
<path d="M15.6 0.667c1.467 0 2.933 0.667 3.867 1.6v0c0.933 0.933 1.6 2.4 1.6 3.867v0.267c0.267 0.133 0.4 0.133 0.667 0.267l3.733-2.133c0.533-0.4 1.333-0.133 1.733 0.4 0.133 0.267 0.267 0.533 0.133 0.933l-0.8 3.867c0.533 0.533 0.933 0.933 1.333 1.467s0.667 1.067 0.933 1.6h0.133c0.8 0 1.467 0.267 1.867 0.8 0.533 0.533 0.8 1.2 0.8 1.867v3.733c0 0.8-0.267 1.467-0.8 1.867v0c-0.533 0.533-1.2 0.8-1.867 0.8h-0.133c-0.267 0.667-0.667 1.333-1.2 1.867-0.4 0.533-0.933 1.067-1.467 1.467l0.533 0.933v0.133c0.4 0.8 0.533 1.733 0.267 2.533s-0.8 1.6-1.6 2.133h-0.133c-0.8 0.4-1.733 0.533-2.533 0.267v0c-0.8-0.267-1.6-0.8-2.133-1.6v-0.133l-0.667-1.067c-0.533 0.133-0.933 0.267-1.467 0.267-0.8 0.133-1.733 0.133-2.533 0.133s-1.733 0-2.533-0.133c-0.533-0.133-0.933-0.133-1.467-0.267l-0.667 1.2c-0.4 0.8-1.2 1.333-2.133 1.6h-0.133c-0.8 0.133-1.733 0.133-2.533-0.4v0c-0.8-0.533-1.333-1.2-1.6-2s-0.133-1.733 0.4-2.667v0l0.533-0.933c-1.067-0.933-1.867-2-2.533-3.2-0.667-1.333-1.067-2.667-1.2-4.267h-0.133c-0.4-0.133-0.8-0.4-1.067-0.8-0.667-0.667-1.067-1.6-1.067-2.533s0.4-1.867 1.067-2.533c0.267-0.267 0.8-0.267 1.067 0s0.267 0.8 0 1.067c-0.4 0.4-0.667 0.933-0.667 1.467s0.267 1.067 0.667 1.467c0.133 0.133 0.267 0.133 0.267 0.267 0.267-2.8 1.867-5.333 4-7.2 1.067-0.933 2.267-1.6 3.733-2.133 0-0.267 0-0.4 0-0.533 0-1.467 0.667-2.933 1.6-3.867v0c1.2-1.2 2.533-1.733 4.133-1.733v0zM16.133 5.6v0c1.067 0 2.133 0.133 3.2 0.267h0.267c0-1.067-0.533-2-1.2-2.667v0c-0.667-0.667-1.733-1.2-2.8-1.2s-2.133 0.4-2.8 1.2c-0.667 0.8-1.2 1.733-1.2 2.8v0.133c1.333-0.4 2.933-0.533 4.533-0.533v0zM18.8 8.267v0c-0.8-0.133-1.733-0.267-2.667-0.267-3.2 0-6 1.067-8.133 2.8-2 1.6-3.2 3.867-3.2 6.4 0 1.333 0.267 2.533 0.933 3.6 0.667 1.2 1.467 2.267 2.667 3.067 0.533 0.4 0.667 1.067 0.267 1.6l-1.067 1.733c0 0 0 0.133-0.133 0.133-0.133 0.267-0.133 0.4 0 0.667 0 0.267 0.133 0.4 0.4 0.533h0.133c0.267 0.133 0.4 0.133 0.667 0.133v0c0.267 0 0.4-0.267 0.533-0.4l1.2-2c0.267-0.533 0.933-0.8 1.467-0.667 0.667 0.267 1.333 0.4 2 0.533s1.333 0.133 2.133 0.133c0.8 0 1.467 0 2.133-0.133s1.333-0.267 2-0.533c0.533-0.133 1.2 0 1.467 0.533l1.067 1.867c0 0 0.133 0.133 0.133 0.133 0.133 0.267 0.267 0.4 0.533 0.4s0.4 0 0.667-0.133l0.133-0.133c0.133-0.133 0.4-0.267 0.4-0.533s0-0.4 0-0.667c0 0-0.133-0.133-0.133-0.133l-0.933-1.733c-0.267-0.533-0.133-1.2 0.267-1.6 0.667-0.533 1.333-1.067 1.867-1.733s0.933-1.333 1.2-2c0.133-0.533 0.667-0.8 1.2-0.8h0.933c0 0 0.133 0 0.133-0.133 0 0 0-0.133 0-0.133v-3.733c0 0 0-0.133 0-0.133s-0.133-0.133-0.133-0.133h-0.933c-0.533 0-0.933-0.267-1.2-0.8-0.267-0.667-0.533-1.2-1.067-1.867-0.4-0.533-0.933-1.067-1.467-1.6-0.4-0.267-0.533-0.8-0.4-1.2l0.4-1.733-1.733 1.067c-0.4 0.267-0.8 0.267-1.2 0.133-0.8-0.133-1.6-0.4-2.533-0.533v0zM23.333 12.933v0c-0.533 0-1.067 0.267-1.467 0.667s-0.667 0.933-0.667 1.467c0 0.533 0.267 1.067 0.667 1.467v0c0.4 0.4 0.933 0.667 1.467 0.667s1.067-0.267 1.467-0.667c0.4-0.4 0.667-0.933 0.667-1.467s-0.267-1.067-0.533-1.467v0c-0.4-0.533-0.933-0.667-1.6-0.667v0zM23.867 14.533v0c-0.133-0.133-0.267-0.133-0.4-0.133s-0.4 0.133-0.4 0.133c-0.133 0.133-0.267 0.267-0.267 0.4s0.133 0.4 0.267 0.4c0.133 0.133 0.267 0.133 0.4 0.133s0.4-0.133 0.4-0.133c0.133-0.133 0.133-0.267 0.133-0.4s0-0.267-0.133-0.4v0 0 0z"></path>
</symbol>
<symbol id="icon-place" viewBox="0 0 32 32">
<title>place</title>
<path d="M16.139 0c3.896 0 7.374 1.53 9.878 4.174 4.73 4.73 5.426 12.243 1.67 17.809-1.53 2.226-3.757 4.035-6.261 5.009l-4.452 4.591c-0.417 0.417-1.252 0.417-1.67 0v0 0l-4.452-4.591c-2.504-0.974-4.73-2.783-6.261-5.009-3.757-5.426-3.061-13.078 1.67-17.809 2.504-2.643 5.983-4.174 9.878-4.174v0zM16.139 6.817v0c1.948 0 3.757 0.835 5.009 2.087s2.087 3.061 2.087 5.009c0 1.948-0.835 3.757-2.087 5.009s-3.061 2.087-5.009 2.087c-1.948 0-3.757-0.835-5.009-2.087s-2.087-3.061-2.087-5.009c0-1.948 0.835-3.757 2.087-5.009s3.061-2.087 5.009-2.087v0zM20.035 10.017v0c-0.974-0.974-2.365-1.67-3.896-1.67s-2.922 0.557-3.896 1.67c-0.974 0.974-1.67 2.365-1.67 3.896s0.557 2.922 1.67 3.896c0.974 0.974 2.365 1.67 3.896 1.67s2.922-0.557 3.896-1.67c0.974-0.974 1.67-2.365 1.67-3.896s-0.696-2.922-1.67-3.896v0zM24.209 5.704v0c-2.087-2.087-5.009-3.339-8.209-3.339s-6.122 1.252-8.209 3.339c-3.896 3.896-4.452 10.157-1.391 14.609 1.252 1.948 3.061 3.339 5.287 4.313 0.139 0 0.278 0.139 0.417 0.278l3.757 3.896 3.757-3.896c0.139-0.139 0.278-0.278 0.417-0.278 2.226-0.835 4.035-2.365 5.287-4.313 3.339-4.452 2.783-10.574-1.113-14.609v0z"></path>
</symbol>
<symbol id="icon-show" viewBox="0 0 32 32">
<title>show</title>
<path d="M0 29.818h32v-4.364h-32v4.364zM0 2.182v4.364h32v-4.364h-32zM0 18.182h32v-4.364h-32v4.364z"></path>
</symbol>
<symbol id="icon-weixing" viewBox="0 0 32 32">
<title>weixing</title>
<path d="M21.647 10.813c0.376 0 0.732 0.021 1.088 0.063-0.983-4.559-5.856-7.948-11.42-7.948-6.212 0-11.315 4.246-11.315 9.621 0 3.116 1.694 5.668 4.539 7.634l-1.129 3.409 3.953-1.987c1.422 0.272 2.552 0.565 3.974 0.565 0.356 0 0.711-0.021 1.067-0.042-0.23-0.753-0.356-1.548-0.356-2.363-0.021-4.936 4.225-8.952 9.6-8.952zM15.561 7.739c0.858 0 1.422 0.565 1.422 1.422s-0.565 1.422-1.422 1.422c-0.858 0-1.694-0.565-1.694-1.422s0.858-1.422 1.694-1.422zM7.634 10.562c-0.858 0-1.715-0.565-1.715-1.422s0.858-1.422 1.715-1.422c0.858 0 1.422 0.565 1.422 1.422s-0.565 1.422-1.422 1.422zM31.979 19.639c0-4.518-4.539-8.22-9.621-8.22-5.396 0-9.621 3.681-9.621 8.22s4.246 8.22 9.621 8.22c1.129 0 2.259-0.293 3.388-0.565l3.095 1.694-0.816-2.844c2.259-1.694 3.953-3.953 3.953-6.505zM19.242 18.217c-0.565 0-1.129-0.565-1.129-1.129s0.565-1.129 1.129-1.129c0.858 0 1.422 0.565 1.422 1.129s-0.565 1.129-1.422 1.129zM25.474 18.217c-0.565 0-1.129-0.565-1.129-1.129s0.565-1.129 1.129-1.129c0.858 0 1.422 0.565 1.422 1.129s-0.565 1.129-1.422 1.129z"></path>
</symbol>
</defs>
</svg>
